<?xml version="1.0" encoding="UTF-8"?>
<svg id="Capa_1" data-name="Capa 1" xmlns="http://www.w3.org/2000/svg" viewBox="0 0 1000 1000">
  <defs>
    <style>
      .cls-1 {
        fill: #711510;
        stroke-width: 0px;
      }
    </style>
  </defs>
  <path class="cls-1" d="M681.22,188.15c-9.11-5.33-22.86,0-37.42,16.29-16.63,18.45-29.26,42.68-38.05,66.03-16.79,42.68-27.66,87.22-40.13,130.91-15.51,16.15-29.74,30.42-43.81,43.83-32.62,31-66.04,62.71-103.61,111.01-33.58,43.97-56.76,85.93-67.79,125.29-6.72,24.8-9.59,47.87-7.52,67.62-13.27,1.59-26.86.58-39.49-3.46-80.75-28.83-74.51-122.83-54.68-182.67,15.51-44.12,39.17-81.31,70.35-113.32,23.34-23.21,55.48-44.55,79.15-51.18,18.23-5.33,35.02-5.05,48.29.58,18.07,7.5,27.98,24.22,27.82,45.7.16,2.02,1.28,1.3,1.44.14,1.92-22.92-8.95-40.08-27.82-48.3-14.07-5.62-31.98-6.49-51.17-1.01-31.34,8.94-59,28.4-82.66,49.45-36.14,33.01-63.32,73.24-77.23,114.91-21.91,65.45-15.83,165.94,66.04,188.58,12.63,3.75,26.54,4.61,40.61,2.88.8,6.92,2.24,13.26,4,18.89.8,2.45,1.76,4.9,2.72,7.35.8,1.59,1.44,3.17,2.4,4.61.16.72.64,1.44,1.12,2.16.8,1.59,1.76,3.17,2.88,4.61.16.43.48,1.01.96,1.44.96,1.44,1.92,2.88,3.2,4.18,1.44,1.87,3.04,3.46,4.8,5.05.32.43.8.86,1.28,1.3,4.48,4.04,9.59,7.21,15.19,9.37,7.36,2.59,15.35,3.6,23.18,3.32l.32.14c0-.14.16-.14.16-.29,6.24-.14,12.47-1.01,18.07-2.59,19.99-5.62,36.62-19.32,50.69-40.22.96-2.31-.48-3.03-1.6-.86-8.15,12.4-16.95,21.05-25.58,27.1-1.12.86-2.24,1.59-3.36,2.31-7.2,4.61-14.07,7.5-20.47,9.37-5.6,1.44-10.87,2.31-15.51,2.59-2.56.14-4.96.29-7.04,0-9.27-.14-15.35-2.16-17.75-3.03-1.76-.58-3.52-1.44-5.12-2.45-1.28-.58-2.4-1.3-3.68-2.16-.64-.29-1.28-.72-1.92-1.3-1.12-.86-2.4-1.87-3.52-2.88l-2.08-2.16c-2.4-2.16-4.32-4.47-6.08-7.06-1.28-1.44-2.4-3.03-3.36-4.76-.32-.29-.48-.58-.64-.86-1.12-1.87-2.24-3.75-3.04-5.77-1.6-3.03-2.88-6.2-4-9.52-1.6-5.48-2.62-11.23-3.1-17.43,21.27-2.74,43.08-11.98,64.82-26.4,5.28-3.46,10.55-7.21,15.83-11.39,3.04-2.31,5.92-4.76,8.79-7.21,30.86-26.67,53.08-59.98,71.15-95.15,9.59-18.74,18.07-38.06,26.22-57.09,3.2-8.22,6.24-16.44,9.11-24.8l5.28-14.85,4.8-13.41c-.32.43-.64.86-1.12,1.3,4.16-12.54,7.99-25.09,11.51-37.77,1.76-6.05,3.36-12.11,5.12-18.17,5.28-19.75,10.23-39.5,14.87-59.4,20.79-22.2,41.73-47.72,65.08-80.45,26.22-36.04,35.82-63,39.49-78.72,4.64-19.75,1.92-34.75-6.4-40.22ZM439.3,699.23c-4.32,4.47-8.95,8.79-13.91,12.98-4.16,3.32-8.15,6.34-12.31,9.08-22.39,15.71-45.25,25.09-67.63,27.54-1.92-19.32.48-42.24,7.67-66.75,11.19-39.07,33.9-81.17,67.32-124.42,37.57-48.3,70.51-79.87,102.65-110.87,13.59-12.4,26.86-25.66,40.93-40.22-4.48,16.29-8.79,32.29-13.11,48.15l-4.8,16.87c-7.52,27.25-15.51,53.92-24.62,80.01-18.39,52.91-40.77,106.4-82.19,147.63ZM684.9,227.94c-3.2,15.86-13.11,41.81-39.01,77.71-22.07,30.85-42.05,55.65-61.4,76.27,8.47-36.62,16.63-73.82,28.94-109.43,7.99-23.07,16.31-45.85,32.94-65.45,6.72-8.36,22.06-23.36,33.74-17.01,2.4,2.16,11.35,9.95,4.8,37.92Z"/>
  <path class="cls-1" d="M366.87,797.27c-.48.86-.96,1.73-1.28,2.45.32.43.8.86,1.28,1.3.64-.58,1.28-1.15,2.08-1.59l-2.08-2.16ZM769.19,524.87c-33.01,62.98-74.76,142.54-120.19,191.14-14.29,14.5-32.21,29.63-50.94,28.41-43.44-9.97,46.69-158.77,62.44-204.48,8.26-19.66,15.18-41.57,14.31-62.81-2.29-19.23-15.3-37.04-36.22-37.71-15.31-.46-29.38,8.04-41.3,17.08-17.28,13.53-32.42,29.62-46.19,46.86-7.98,9.87-15.64,19.99-23.18,30.57-2.23,5.74-4.01,11.68-6.34,17.25,7.87-11.19,17.42-25,26.27-36.24,13.42-17.32,29.89-36.08,45.83-49.7,14.59-12.35,27.19-19.85,38.5-21.22,36.56-1.02,13.98,53.5,4.43,76.61-24.46,60.25-87.01,157.71-66.37,208.55,6.53,15.5,20.78,23.24,38.66,18.7,63.08-19.67,121.76-141.73,165.01-222.45.64-3.29-3.1-3.87-4.64-.75l-.1.19Z"/>
</svg>
