<?xml version="1.0" encoding="UTF-8"?>
<svg id="Capa_1" data-name="Capa 1" xmlns="http://www.w3.org/2000/svg" viewBox="0 0 1294.25 778.21">
  <defs>
    <style>
      .cls-1 {
        fill: #711510;
        stroke-width: 0px;
      }
    </style>
  </defs>
  <g>
    <path class="cls-1" d="M487.08,130.83c-7.55-4.42-18.95,0-31.01,13.5-13.78,15.3-24.25,35.37-31.54,54.73-13.92,35.37-22.93,72.3-33.27,108.51-12.86,13.38-24.65,25.21-36.31,36.33-27.04,25.69-54.74,51.98-85.88,92.02-27.83,36.45-47.05,71.22-56.19,103.85-5.57,20.55-7.95,39.67-6.23,56.05-11,1.31-22.27.48-32.73-2.87-66.93-23.9-61.76-101.81-45.33-151.41,12.86-36.57,32.47-67.4,58.31-93.93,19.35-19.24,45.99-36.93,65.6-42.42,15.11-4.42,29.02-4.18,40.02.48,14.98,6.21,23.19,20.08,23.06,37.88.13,1.67,1.06,1.08,1.19.12,1.59-19-7.42-33.22-23.06-40.03-11.66-4.66-26.51-5.38-42.41-.84-25.98,7.41-48.9,23.54-68.52,40.99-29.95,27.37-52.48,60.71-64.01,95.24-18.16,54.25-13.12,137.54,54.74,156.31,10.47,3.11,22,3.82,33.66,2.39.66,5.74,1.85,10.99,3.31,15.65.66,2.03,1.46,4.06,2.25,6.09.66,1.31,1.19,2.63,1.99,3.82.13.6.53,1.19.93,1.79.66,1.32,1.46,2.63,2.39,3.82.13.36.4.84.8,1.2.8,1.19,1.59,2.39,2.65,3.47,1.19,1.55,2.52,2.87,3.98,4.18.26.36.66.72,1.06,1.08,3.71,3.35,7.95,5.97,12.59,7.77,6.1,2.15,12.72,2.99,19.22,2.75l.27.12c0-.12.13-.12.13-.24,5.17-.12,10.34-.84,14.98-2.15,16.57-4.66,30.35-16.01,42.01-33.34.8-1.91-.4-2.51-1.33-.72-6.76,10.28-14.05,17.45-21.2,22.47-.93.72-1.86,1.31-2.78,1.91-5.96,3.82-11.66,6.21-16.96,7.77-4.64,1.19-9.01,1.91-12.86,2.15-2.12.12-4.11.24-5.83,0-7.69-.12-12.72-1.79-14.71-2.51-1.46-.48-2.92-1.19-4.24-2.03-1.06-.48-1.99-1.08-3.05-1.79-.53-.24-1.06-.6-1.59-1.08-.93-.72-1.99-1.55-2.92-2.39l-1.72-1.79c-1.99-1.79-3.58-3.7-5.04-5.86-1.06-1.19-1.99-2.51-2.78-3.94-.27-.24-.4-.48-.53-.72-.93-1.55-1.85-3.11-2.52-4.78-1.32-2.51-2.39-5.14-3.31-7.89-1.32-4.54-2.17-9.31-2.57-14.45,17.63-2.27,35.7-9.93,53.73-21.88,4.37-2.87,8.75-5.97,13.12-9.44,2.52-1.91,4.9-3.94,7.29-5.97,25.58-22.11,44-49.71,58.98-78.87,7.95-15.53,14.98-31.55,21.74-47.32,2.65-6.81,5.17-13.62,7.55-20.55l4.37-12.31,3.98-11.11c-.26.36-.53.72-.93,1.08,3.45-10.4,6.63-20.79,9.54-31.31,1.46-5.02,2.78-10.04,4.24-15.06,4.37-16.37,8.48-32.74,12.33-49.23,17.23-18.4,34.59-39.55,53.94-66.68,21.74-29.87,29.69-52.22,32.73-65.25,3.84-16.37,1.59-28.8-5.3-33.34ZM286.56,554.45c-3.58,3.7-7.42,7.29-11.53,10.76-3.45,2.75-6.76,5.26-10.21,7.53-18.55,13.03-37.51,20.79-56.06,22.82-1.59-16.01.4-35.01,6.36-55.33,9.28-32.38,28.1-67.28,55.8-103.13,31.14-40.03,58.45-66.2,85.08-91.9,11.26-10.28,22.27-21.27,33.93-33.34-3.71,13.5-7.29,26.77-10.87,39.91l-3.98,13.98c-6.23,22.58-12.86,44.69-20.41,66.32-15.24,43.86-33.8,88.19-68.12,122.37ZM490.13,163.81c-2.65,13.14-10.87,34.66-32.34,64.41-18.29,25.57-34.86,46.13-50.89,63.22,7.02-30.35,13.78-61.18,23.99-90.7,6.63-19.12,13.52-38,27.3-54.25,5.57-6.93,18.29-19.36,27.96-14.1,1.99,1.79,9.41,8.25,3.98,31.43Z"/>
    <path class="cls-1" d="M226.52,635.71c-.4.72-.8,1.43-1.06,2.03.26.36.66.72,1.06,1.08.53-.48,1.06-.96,1.72-1.31l-1.72-1.79ZM559.99,409.92c-27.36,52.21-61.97,118.15-99.62,158.43-11.85,12.02-26.7,24.56-42.22,23.55-36-8.26,38.7-131.6,51.75-169.49,6.84-16.3,12.58-34.46,11.86-52.06-1.9-15.94-12.68-30.7-30.02-31.26-12.69-.38-24.35,6.66-34.23,14.16-14.32,11.22-26.87,24.56-38.28,38.84-6.61,8.18-12.96,16.57-19.21,25.34-1.85,4.76-3.32,9.68-5.25,14.3,6.52-9.28,14.44-20.73,21.77-30.04,11.12-14.35,24.78-29.9,37.99-41.19,12.09-10.24,22.54-16.46,31.91-17.59,30.3-.85,11.59,44.34,3.67,63.5-20.27,49.94-72.12,130.72-55.01,172.86,5.41,12.85,17.22,19.26,32.05,15.5,52.28-16.3,100.93-117.48,136.77-184.38.53-2.73-2.57-3.2-3.85-.62l-.08.16Z"/>
  </g>
  <g>
    <g>
      <path class="cls-1" d="M598.96,374.51c0,2.24.68,4.13,2.05,5.68,1.37,1.53,3.16,2.92,5.38,4.12,2.22,1.2,4.59,2.37,7.1,3.49,2.92,1.23,5.69,2.6,8.34,4.12,2.63,1.51,4.82,3.31,6.56,5.42,1.74,2.11,2.6,4.72,2.6,7.87s-.89,5.93-2.68,8.2c-1.79,2.26-4.2,3.98-7.24,5.16-3.02,1.18-6.39,1.77-10.09,1.77-7.06,0-13.51-2.29-19.34-6.88v-12.46c.05.29.19.88.42,1.77.22,1.3.68,2.85,1.38,4.67.7,1.82,1.77,3.67,3.2,5.52,1.42,1.85,3.3,3.41,5.63,4.67s5.23,1.89,8.7,1.89c4.2,0,7.69-1.14,10.47-3.41s4.16-5.17,4.16-8.7c0-2.81-.79-5.16-2.4-7.06-1.6-1.9-3.65-3.57-6.19-5-2.52-1.44-5.15-2.76-7.9-4-2.7-1.18-5.21-2.42-7.57-3.75-2.35-1.31-4.28-2.83-5.8-4.59-1.52-1.72-2.27-3.83-2.27-6.3,0-3.76,1.75-6.94,5.26-9.55,3.5-2.6,8.01-3.9,13.5-3.9,3.64,0,6.84.64,9.59,1.93,2.74,1.29,4.85,2.78,6.3,4.46v11.35c-.05-.27-.11-.78-.16-1.52-.16-1.11-.52-2.53-1.05-4.24-.53-1.71-1.36-3.41-2.48-5.09-1.12-1.67-2.66-3.11-4.63-4.28-1.96-1.18-4.49-1.77-7.57-1.77-4.15,0-7.39.97-9.75,2.9-2.35,1.93-3.53,4.45-3.53,7.53Z"/>
      <path class="cls-1" d="M665.68,420.17h-11.02c.9-.38,1.63-1.04,2.19-1.93.56-.9.83-2.41.83-4.54v-49.36h-5.3c-5.16,0-8.43.97-9.84,2.94-1.4,1.96-2.24,4.98-2.52,9.07l.83-12.87h38.69l.83,12.87c-.33-4.09-1.2-7.12-2.6-9.07-1.41-1.97-4.68-2.94-9.84-2.94h-5.21v49.36c0,2.19.26,3.71.79,4.59.53.86,1.25,1.51,2.15,1.89Z"/>
      <path class="cls-1" d="M709.88,420.17c-4.82,0-8.92-1.66-12.32-4.95-3.39-3.31-5.09-7.77-5.09-13.37v-31.96c0-2.14-.27-3.64-.83-4.54-.56-.89-1.3-1.51-2.19-1.85h11.02c-.9.34-1.62.96-2.15,1.85-.53.9-.79,2.41-.79,4.54v31.96c0,3.37.71,6.15,2.14,8.36,1.44,2.22,3.33,3.86,5.68,4.93,2.35,1.05,4.85,1.59,7.49,1.59,3.98,0,7.24-1.22,9.8-3.65,2.55-2.44,3.82-6.19,3.82-11.22v-32.04c0-2.14-.26-3.63-.79-4.5-.53-.86-1.25-1.46-2.15-1.81h6.73c-.9.34-1.62.94-2.15,1.81-.53.88-.79,2.37-.79,4.5v32.04c0,5.6-1.7,10.06-5.09,13.37-3.39,3.3-7.5,4.95-12.32,4.95Z"/>
      <path class="cls-1" d="M757.28,420.17h-18c.89-.38,1.63-1.03,2.19-1.89.56-.88.83-2.4.83-4.59v-43.81c0-2.19-.27-3.71-.83-4.59-.56-.86-1.3-1.46-2.19-1.81h18c5.72,0,10.63,1.27,14.75,3.83,4.12,2.55,7.28,5.97,9.46,10.25,2.19,4.3,3.28,9.05,3.28,14.26s-1.09,9.96-3.28,14.25c-2.18,4.28-5.34,7.69-9.46,10.22-4.12,2.52-9.03,3.78-14.75,3.78v.08ZM757.28,419.25c5.16,0,9.39-1.23,12.7-3.71,3.3-2.46,5.73-5.78,7.31-9.92,1.57-4.15,2.35-8.75,2.35-13.78s-.78-9.73-2.35-13.88c-1.57-4.15-4.01-7.46-7.31-9.92-3.31-2.46-7.54-3.7-12.7-3.7h-9.92v54.91h9.92Z"/>
      <path class="cls-1" d="M804.84,420.08h-11.02c.89-.34,1.63-.94,2.19-1.81.56-.88.83-2.4.83-4.59v-43.81c0-2.14-.27-3.64-.83-4.54-.56-.89-1.3-1.51-2.19-1.85h11.02c-.9.34-1.62.96-2.15,1.85-.53.9-.79,2.41-.79,4.54v43.81c0,2.19.26,3.71.79,4.59.53.86,1.25,1.46,2.15,1.81Z"/>
      <path class="cls-1" d="M842.14,420.33c-7.79,0-14.44-2.78-19.97-8.36-5.52-5.57-8.28-12.29-8.28-20.13s2.76-14.65,8.28-20.23c5.53-5.58,12.18-8.36,19.97-8.36s14.54,2.78,20.07,8.36c5.52,5.58,8.28,12.32,8.28,20.23s-2.76,14.56-8.28,20.13c-5.53,5.58-12.21,8.36-20.07,8.36ZM844.67,419.07c2.07,0,4.12-.3,6.13-.92,4.71-1.63,8.42-4.59,11.1-8.88,2.7-4.28,4.04-9.14,4.04-14.58,0-3.31-.56-6.68-1.68-10.1-2.07-6.16-5.38-11.06-9.92-14.67-4.54-3.61-9.42-5.42-14.63-5.42-2.07,0-4.12.3-6.13.92-4.71,1.63-8.42,4.59-11.1,8.88-2.7,4.28-4.04,9.14-4.04,14.59,0,3.3.56,6.67,1.68,10.09,2.07,6.16,5.38,11.06,9.92,14.67,4.53,3.61,9.42,5.42,14.63,5.42Z"/>
    </g>
    <g>
      <path class="cls-1" d="M919,374.51c0,2.24.68,4.13,2.05,5.68,1.37,1.53,3.16,2.92,5.38,4.12,2.22,1.2,4.59,2.37,7.1,3.49,2.92,1.23,5.69,2.6,8.34,4.12,2.63,1.51,4.82,3.31,6.56,5.42s2.6,4.72,2.6,7.87-.89,5.93-2.68,8.2c-1.79,2.26-4.2,3.98-7.24,5.16-3.02,1.18-6.39,1.77-10.09,1.77-7.06,0-13.51-2.29-19.34-6.88v-12.46c.05.29.19.88.42,1.77.22,1.3.68,2.85,1.38,4.67.7,1.82,1.77,3.67,3.2,5.52,1.42,1.85,3.3,3.41,5.63,4.67,2.33,1.26,5.23,1.89,8.7,1.89,4.2,0,7.69-1.14,10.47-3.41,2.78-2.27,4.16-5.17,4.16-8.7,0-2.81-.79-5.16-2.4-7.06-1.6-1.9-3.65-3.57-6.19-5-2.52-1.44-5.15-2.76-7.9-4-2.7-1.18-5.21-2.42-7.57-3.75-2.35-1.31-4.28-2.83-5.8-4.59-1.52-1.72-2.27-3.83-2.27-6.3,0-3.76,1.75-6.94,5.26-9.55,3.5-2.6,8.01-3.9,13.5-3.9,3.64,0,6.84.64,9.59,1.93,2.74,1.29,4.85,2.78,6.3,4.46v11.35c-.05-.27-.11-.78-.16-1.52-.16-1.11-.52-2.53-1.05-4.24s-1.36-3.41-2.48-5.09c-1.12-1.67-2.66-3.11-4.63-4.28-1.96-1.18-4.49-1.77-7.57-1.77-4.15,0-7.39.97-9.75,2.9s-3.53,4.45-3.53,7.53Z"/>
      <path class="cls-1" d="M989.26,420.33c-7.79,0-14.44-2.78-19.97-8.36-5.52-5.57-8.28-12.29-8.28-20.13s2.76-14.65,8.28-20.23c5.53-5.58,12.18-8.36,19.97-8.36s14.54,2.78,20.07,8.36c5.52,5.58,8.28,12.32,8.28,20.23s-2.76,14.56-8.28,20.13c-5.53,5.58-12.21,8.36-20.07,8.36ZM991.79,419.07c2.07,0,4.12-.3,6.13-.92,4.71-1.63,8.42-4.59,11.1-8.88,2.7-4.28,4.04-9.14,4.04-14.58,0-3.31-.56-6.68-1.68-10.1-2.07-6.16-5.38-11.06-9.92-14.67-4.54-3.61-9.42-5.42-14.63-5.42-2.07,0-4.12.3-6.13.92-4.71,1.63-8.42,4.59-11.1,8.88-2.7,4.28-4.04,9.14-4.04,14.59,0,3.3.56,6.67,1.68,10.09,2.07,6.16,5.38,11.06,9.92,14.67,4.53,3.61,9.42,5.42,14.63,5.42Z"/>
      <path class="cls-1" d="M1038.61,420.17h-11.02c.89-.38,1.62-1.04,2.15-1.93.53-.9.79-2.41.79-4.54v-43.81c0-2.14-.26-3.64-.79-4.54-.53-.89-1.26-1.51-2.15-1.85h31.62l.85,12.03c-.45-3.98-1.33-6.84-2.61-8.58-1.29-1.74-3.98-2.6-8.08-2.6h-13.7v28.76h11.18c2.35,0,4.22-.93,5.6-2.78,1.37-1.85,2.22-4.01,2.56-6.47v19.26c-.34-2.46-1.19-4.61-2.56-6.43-1.38-1.82-3.24-2.74-5.6-2.74h-11.18v19.76c0,2.19.26,3.71.79,4.59.53.86,1.25,1.51,2.15,1.89Z"/>
      <path class="cls-1" d="M1081.06,420.08h-11.02c.89-.34,1.63-.94,2.19-1.81.56-.88.83-2.4.83-4.59v-43.81c0-2.14-.27-3.64-.83-4.54-.56-.89-1.3-1.51-2.19-1.85h11.02c-.9.34-1.62.96-2.15,1.85-.53.9-.79,2.41-.79,4.54v43.81c0,2.19.26,3.71.79,4.59.53.86,1.25,1.46,2.15,1.81Z"/>
      <path class="cls-1" d="M1126.78,420.17h-.83l-31.12-52.13v45.74c0,2.14.27,3.63.81,4.5.53.86,1.25,1.51,2.15,1.89h-6.73c.89-.38,1.62-1.03,2.15-1.89.53-.88.79-2.37.79-4.5v-43.98c0-2.19-.26-3.7-.79-4.54-.53-.83-1.26-1.42-2.15-1.77h6.98l27.92,46.75v-40.44c0-1.63-.18-2.86-.51-3.7-.34-.85-.71-1.45-1.14-1.82-.42-.36-.83-.63-1.22-.79h6.64c-.89.34-1.62.94-2.14,1.81-.53.88-.81,2.37-.81,4.5v50.37Z"/>
      <path class="cls-1" d="M1172.17,420.17h-32.47c.89-.38,1.62-1.03,2.15-1.89.53-.88.79-2.4.79-4.59v-43.81c0-2.19-.26-3.71-.79-4.59-.53-.86-1.26-1.46-2.15-1.81h31.62l.85,12.03c-.45-3.98-1.31-6.84-2.57-8.58s-3.97-2.6-8.12-2.6h-13.7v27.07h11.18c2.35,0,4.22-.93,5.6-2.78,1.37-1.85,2.22-4.01,2.56-6.47v19.26c-.34-2.46-1.19-4.61-2.56-6.43-1.38-1.82-3.24-2.74-5.6-2.74h-11.18v27h14.55c4.15,0,6.84-.86,8.12-2.57,1.26-1.71,2.11-4.59,2.56-8.62l-.83,12.11Z"/>
    </g>
  </g>
</svg>